#!OML:ASF F:\VICON\USERDATA\INSTALL\rory3\rory3.ASF
:FULLY-SPECIFIED
:DEGREES
247
root 3.7195 18.1596 25.4428 -3.79255 -2.79097 -5.87242
lowerback 10.9775 0.244156 3.76836
upperback 0.367806 0.967541 2.8564
thorax -5.76981 0.411408 0.72061
lowerneck -16.5878 -2.84754 -2.22262
upperneck 17.9661 -3.46267 0.52522
head 8.37173 -1.7358 0.126485
rclavicle 1.88224e-015 -2.92213e-014
rhumerus -31.1009 -19.7272 -77.8798
rradius 23.1578
rwrist 6.78335
rhand -17.4343 23.7867
rfingers 7.12502
rthumb 8.81629 -6.00912
lclavicle 1.88224e-015 -2.92213e-014
lhumerus -33.9368 -1.29156 84.7304
lradius 32.3644
lwrist 6.68652
lhand -25.9895 22.9415
lfingers 7.12502
lthumb 0.555899 52.9205
rfemur -10.3626 6.59398 31.6268
rtibia 28.1774
rfoot -10.0188 -4.27592
rtoes 10.5706
lfemur -16.0281 1.30053 -13.5617
ltibia 70.3945
lfoot -0.0612451 -11.9711
ltoes 2.67923
248
root 3.7142 18.1494 25.6192 -3.7094 -2.79063 -5.75623
lowerback 10.9298 0.342199 3.72486
upperback 0.292119 1.08627 2.73924
thorax -5.81947 0.468209 0.603761
lowerneck -16.6301 -2.87278 -2.14092
upperneck 18.1028 -3.52268 0.54295
head 8.42493 -1.75631 0.110145
rclavicle -1.39211e-014 -7.55382e-015
rhumerus -30.941 -18.8831 -78.3891
rradius 23.7599
rwrist 5.90039
rhand -17.3291 23.5683
rfingers 7.12502
rthumb 8.91782 -6.22319
lclavicle -1.39211e-014 -7.55382e-015
lhumerus -34.3291 -1.29912 84.7464
lradius 32.2738
lwrist 6.95395
lhand -25.4148 23.5138
lfingers 7.12502
lthumb 1.11094 53.4907
rfemur -9.85994 6.6763 31.6032
rtibia 28.2718
rfoot -10.7233 -4.63767
rtoes 9.91532
lfemur -17.2622 1.43107 -13.7647
ltibia 70.1411
lfoot 0.496569 -11.4904
ltoes -1.82621
249
root 3.71256 18.1334 25.8053 -3.71339 -2.74768 -5.5827
lowerback 10.7857 0.397774 3.66423
upperback 0.311917 1.13537 2.60537
thorax -5.71476 0.493747 0.490469
lowerneck -16.7291 -2.78113 -1.98068
upperneck 18.2261 -3.42953 0.508911
head 8.47922 -1.70415 0.0815448
rclavicle -1.5294e-014 -7.15625e-015
rhumerus -30.7806 -17.2401 -79.1899
rradius 24.7521
rwrist 4.58998
rhand -17.1452 22.2096
rfingers 7.12502
rthumb 9.09519 -7.57425
lclavicle -1.5294e-014 -7.15625e-015
lhumerus -34.5275 -1.3739 84.789
lradius 31.9751
lwrist 7.38842
lhand -26.0228 22.0601
lfingers 7.12502
lthumb 0.523772 52.0392
rfemur -9.33882 6.5469 31.4878
rtibia 28.6322
rfoot -11.675 -4.84481
rtoes 9.49921
lfemur -18.0396 1.44048 -14.0254
ltibia 69.7377
lfoot -0.138288 -11.2492
ltoes -10.7872
250
root 3.70632 18.1136 25.9869 -3.75357 -2.74517 -5.48204
lowerback 10.7263 0.486871 3.64559
upperback 0.331755 1.24012 2.48407
thorax -5.65597 0.545075 0.358054
lowerneck -16.552 -2.7631 -1.90458
upperneck 18.1425 -3.44214 0.578822
head 8.41928 -1.69829 0.0941665
rclavicle -1.15481e-014 -1.07344e-014
rhumerus -30.5774 -16.4105 -79.6771
rradius 25.486
rwrist 4.23556
rhand -16.9427 20.5537
rfingers 7.12502
rthumb 9.29064 -9.22159
lclavicle -1.15481e-014 -1.07344e-014
lhumerus -34.8906 -1.64878 84.9149
lradius 31.8769
lwrist 8.32452
lhand -27.377 20.43
lfingers 7.12502
lthumb -0.78424 50.4083
rfemur -8.78878 6.52668 31.4818
rtibia 29.0537
rfoot -12.5361 -5.02403
rtoes 9.05959
lfemur -18.7476 1.33397 -14.1356
ltibia 69.3282
lfoot -3.30852 -9.49133
ltoes -3.7577
251
root 3.69446 18.0908 26.1549 -3.61614 -2.97105 -5.65768
lowerback 10.7712 0.680822 3.84021
upperback 0.256091 1.52467 2.4302
thorax -5.7492 0.676891 0.148066
lowerneck -16.5812 -2.91931 -1.8232
upperneck 18.1946 -3.66302 0.506938
head 8.44174 -1.8041 0.0291222
rclavicle -1.91144e-014 -3.97569e-015
rhumerus -30.4342 -15.9828 -80.0014
rradius 26.1587
rwrist 4.22381
rhand -17.115 19.4444
rfingers 7.12502
rthumb 9.12436 -10.3383
lclavicle -1.91144e-014 -3.97569e-015
lhumerus -35.2912 -2.1308 85.2177
lradius 31.9713
lwrist 9.90706
lhand -28.1353 21.0341
lfingers 7.12502
lthumb -1.51663 51.0084
rfemur -8.4464 6.99204 31.8422
rtibia 29.3867
rfoot -13.2184 -5.47563
rtoes 8.48999
lfemur -19.8985 1.34661 -13.7768
ltibia 68.9438
lfoot -4.14119 -9.11682
ltoes -4.4139
252
root 3.68714 18.084 26.3253 -3.62065 -3.2059 -5.74732
lowerback 10.9362 0.824475 3.92286
upperback 0.252553 1.73294 2.38512
thorax -5.83692 0.774669 0.0196329
lowerneck -16.6292 -2.95163 -1.79011
upperneck 18.1446 -3.71773 0.52312
head 8.43365 -1.82569 0.0222025
rclavicle 1.53934e-014 7.95139e-015
rhumerus -30.0824 -15.2681 -80.3803
rradius 26.6609
rwrist 3.94895
rhand -17.0282 18.7655
rfingers 7.12502
rthumb 9.20816 -11.0134
lclavicle 1.53934e-014 7.95139e-015
lhumerus -35.6333 -2.60413 85.484
lradius 32.3113
lwrist 11.4124
lhand -28.1452 21.6307
lfingers 7.12502
lthumb -1.5261 51.605
rfemur -7.86725 7.38878 32.105
rtibia 29.5733
rfoot -13.8452 -5.80809
rtoes 8.37681
lfemur -20.9121 1.13446 -13.4762
ltibia 68.4284
lfoot -4.10223 -8.7291
ltoes -0.461825
253
root 3.68959 18.0671 26.5047 -3.71605 -3.24601 -5.81417
lowerback 11.0141 0.875863 4.13776
upperback 0.324426 1.82575 2.32403
thorax -5.79375 0.814693 -0.180337
lowerneck -16.6137 -2.95505 -1.93566
upperneck 18.0346 -3.73785 0.778835
head 8.40232 -1.81862 0.130349
rclavicle 2.69757e-014 -1.80894e-014
rhumerus -29.5512 -14.4487 -80.7849
rradius 27.0185
rwrist 3.32896
rhand -17.0023 17.641
rfingers 7.12502
rthumb 9.23308 -12.1369
lclavicle 2.69757e-014 -1.80894e-014
lhumerus -35.9037 -2.41869 85.3653
lradius 32.3052
lwrist 10.9048
lhand -27.6465 20.6343
lfingers 7.12502
lthumb -1.04448 50.6115
rfemur -7.11137 7.31256 32.2631
rtibia 29.6529
rfoot -14.4726 -5.95196
rtoes 8.45058
lfemur -21.5766 0.88664 -13.3752
ltibia 67.6204
lfoot -4.57101 -8.18234
ltoes -0.79608
254
root 3.68904 18.0442 26.6802 -3.71205 -3.20332 -6.08452
lowerback 10.9746 0.873251 4.50139
upperback 0.396652 1.86384 2.35804
thorax -5.68415 0.826734 -0.352967
lowerneck -16.4587 -2.99982 -2.18957
upperneck 17.7842 -3.80228 1.10353
head 8.3034 -1.83408 0.276771
rclavicle -8.88008e-015 2.47487e-014
rhumerus -29.0009 -13.7685 -81.1374
rradius 27.3097
rwrist 2.65037
rhand -17.2237 18.534
rfingers 7.12502
rthumb 9.01948 -11.2532
lclavicle -8.88008e-015 2.47487e-014
lhumerus -36.0765 -2.15822 85.2815
lradius 32.0511
lwrist 10.1981
lhand -27.7852 19.8106
lfingers 7.12502
lthumb -1.17841 49.7871
rfemur -6.50389 7.18285 32.6379
rtibia 29.7264
rfoot -15.0037 -6.12674
rtoes 8.32775
lfemur -22.4925 0.836522 -13.0641
ltibia 66.6863
lfoot -5.4095 -7.62854
ltoes -2.83464
255
root 3.68351 18.0251 26.8422 -3.51848 -3.25367 -6.47743
lowerback 10.9628 0.920774 4.92067
upperback 0.446474 1.97946 2.42078
thorax -5.60946 0.875265 -0.538849
lowerneck -16.7934 -3.08177 -2.23396
upperneck 17.7283 -3.90249 1.14164
head 8.3475 -1.87831 0.280075
rclavicle -1.11785e-014 -2.39536e-014
rhumerus -28.3942 -12.9231 -81.5383
rradius 27.7274
rwrist 1.71349
rhand -17.577 21.4463
rfingers 7.12502
rthumb 8.6786 -8.35532
lclavicle -1.11785e-014 -2.39536e-014
lhumerus -36.0219 -2.12087 85.3337
lradius 31.8657
lwrist 10.2308
lhand -27.9459 19.5451
lfingers 7.12502
lthumb -1.33368 49.5207
rfemur -6.20497 7.29902 33.164
rtibia 29.9233
rfoot -15.5164 -6.39546
rtoes 8.47138
lfemur -23.7486 0.878354 -12.5625
ltibia 65.6602
lfoot -6.03234 -7.05216
ltoes -1.93926
256
root 3.6826 18.0097 27.008 -3.3672 -3.22044 -6.35694
lowerback 10.9036 1.02196 4.98784
upperback 0.514654 2.10466 2.25472
thorax -5.48972 0.936508 -0.767459
lowerneck -17.2938 -3.13715 -2.28156
upperneck 17.7938 -3.98285 1.27355
head 8.46381 -1.90179 0.314233
rclavicle -1.23215e-014 8.64713e-015
rhumerus -27.9924 -12.3565 -81.8968
rradius 28.4953
rwrist 1.13404
rhand -18.0331 23.368
rfingers 7.12502
rthumb 8.23844 -6.4514
lclavicle -1.23215e-014 8.64713e-015
lhumerus -35.9625 -2.06866 85.1824
lradius 31.9479
lwrist 9.8105
lhand -27.0614 21.4213
lfingers 7.12502
lthumb -0.479402 51.4005
rfemur -5.83997 7.27455 33.0935
rtibia 30.1166
rfoot -16.2684 -6.62352
rtoes 8.33003
lfemur -24.7663 0.707647 -12.7077
ltibia 64.4681
lfoot -6.53373 -6.21154
ltoes -0.0371964
257
root 3.68603 17.9882 27.1808 -3.39949 -3.15801 -5.96929
lowerback 10.9093 1.11583 4.78457
upperback 0.60728 2.18781 2.04236
thorax -5.3896 0.983381 -0.88778
lowerneck -17.3069 -3.09962 -2.24354
upperneck 17.5659 -3.95095 1.34251
head 8.38911 -1.87745 0.336539
rclavicle -7.43889e-016 -8.39865e-015
rhumerus -27.4954 -12.2362 -82.0935
rradius 28.8602
rwrist 1.05965
rhand -18.4908 23.8054
rfingers 7.12502
rthumb 7.79666 -6.03086
lclavicle -7.43889e-016 -8.39865e-015
lhumerus -36.0233 -1.97826 85.0368
lradius 32.1373
lwrist 9.46059
lhand -26.2576 24.1622
lfingers 7.12502
lthumb 0.296987 54.1417
rfemur -5.27675 7.12055 32.713
rtibia 30.2791
rfoot -17.4573 -6.77827
rtoes 7.60482
lfemur -25.3998 0.602271 -13.2109
ltibia 63.1412
lfoot -7.17203 -5.21354
ltoes -1.7275
258
root 3.68123 17.9535 27.3456 -3.44758 -3.3046 -6.57212
lowerback 11.3397 1.13638 5.32422
upperback 0.497273 2.32853 2.21026
thorax -5.72735 1.03074 -1.04771
lowerneck -16.9519 -3.02527 -2.03127
upperneck 17.3241 -3.84604 1.04586
head 8.2321 -1.84789 0.222569
rclavicle 8.37225e-015 -7.00716e-015
rhumerus -27.1311 -11.6657 -82.2637
rradius 28.9739
rwrist 0.850369
rhand -18.9645 23.6286
rfingers 7.12502
rthumb 7.33939 -6.22412
lclavicle 8.37225e-015 -7.00716e-015
lhumerus -36.4308 -1.71654 84.9861
lradius 32.0424
lwrist 9.25209
lhand -26.3012 23.7318
lfingers 7.12502
lthumb 0.254814 53.7114
rfemur -4.68823 7.32694 33.5394
rtibia 30.4035
rfoot -17.8344 -7.18764
rtoes 7.09325
lfemur -26.0847 0.822867 -12.4958
ltibia 61.7998
lfoot -7.60907 -4.42431
ltoes -4.29498
259
root 3.67765 17.9243 27.5161 -3.44522 -3.44509 -7.06604
lowerback 11.679 1.19209 5.79797
upperback 0.36277 2.50484 2.32033
thorax -6.0371 1.09493 -1.23578
lowerneck -16.8599 -3.05568 -1.91853
upperneck 17.3714 -3.87751 0.842274
head 8.22545 -1.87679 0.13352
rclavicle 5.59082e-015 -1.27719e-014
rhumerus -26.9417 -10.9971 -82.4187
rradius 29.3096
rwrist 0.421151
rhand -19.0019 23.4643
rfingers 7.12502
rthumb 7.30328 -6.38964
lclavicle 5.59082e-015 -1.27719e-014
lhumerus -36.9764 -1.60561 85.0237
lradius 31.8036
lwrist 9.00243
lhand -26.8566 21.718
lfingers 7.12502
lthumb -0.281582 51.6976
rfemur -4.05735 7.39049 34.1822
rtibia 30.414
rfoot -18.2479 -7.37307
rtoes 7.48663
lfemur -26.6658 0.963526 -11.9106
ltibia 60.3014
lfoot -7.85113 -3.53336
ltoes -4.93932
260
root 3.68044 17.9057 27.6962 -3.31316 -3.42696 -7.00524
lowerback 11.5258 1.28773 5.86314
upperback 0.36974 2.62199 2.22989
thorax -5.92905 1.15254 -1.38109
lowerneck -17.068 -3.08365 -2.04074
upperneck 17.4752 -3.91528 1.00653
head 8.30388 -1.88402 0.199689
rclavicle 3.5028e-015 -1.77415e-014
rhumerus -26.6971 -10.3737 -82.6217
rradius 29.9494
rwrist -0.355522
rhand -18.7136 22.9985
rfingers 7.12502
rthumb 7.58155 -6.84565
lclavicle 3.5028e-015 -1.77415e-014
lhumerus -37.3422 -1.74609 85.1573
lradius 31.6943
lwrist 9.34543
lhand -27.5769 20.3396
lfingers 7.12502
lthumb -0.977255 50.3171
rfemur -3.42084 7.29413 34.1292
rtibia 30.2162
rfoot -18.6879 -7.38557
rtoes 7.53196
lfemur -27.1701 0.861531 -12.0129
ltibia 58.595
lfoot -8.10875 -2.41511
ltoes -5.82556
261
root 3.6789 17.8942 27.8722 -3.2583 -3.47595 -7.02024
lowerback 11.4374 1.37867 5.93233
upperback 0.492066 2.73505 2.19204
thorax -5.73716 1.21312 -1.47233
lowerneck -17.1237 -3.05759 -2.18284
upperneck 17.2252 -3.89074 1.26739
head 8.23788 -1.85508 0.313966
rclavicle -1.20226e-014 -1.10077e-014
rhumerus -26.1356 -9.72944 -82.8554
rradius 30.4533
rwrist -0.927911
rhand -18.676 22.8248
rfingers 7.12502
rthumb 7.61792 -7.01796
lclavicle -1.20226e-014 -1.10077e-014
lhumerus -37.4012 -1.97775 85.4108
lradius 31.2291
lwrist 10.946
lhand -29.2099 15.7928
lfingers 7.12502
lthumb -2.55445 45.7573
rfemur -2.66711 7.42943 34.2442
rtibia 29.9042
rfoot -19.1501 -7.68463
rtoes 7.60012
lfemur -27.6361 0.768095 -11.9416
ltibia 56.6157
lfoot -8.28355 -1.62552
ltoes -5.36538
